<svg xmlns="http://www.w3.org/2000/svg" width="22" height="22" viewBox="0 0 22 22">
    <g fill="#13B5EA" fill-rule="evenodd">
        <path d="M11 0C5.038 0 0 5.038 0 11s5.038 11 11 11 11-5.038 11-11S16.962 0 11 0zm0 20.952c-5.395 0-9.952-4.557-9.952-9.952S5.605 1.048 11 1.048 20.952 5.605 20.952 11 16.395 20.952 11 20.952z"/>
        <path d="M13.524 9.048h2.619a.524.524 0 0 0 0-1.048h-2.62a.524.524 0 0 0 0 1.048zM6.524 9.048h2.619a.524.524 0 0 0 0-1.048h-2.62a.524.524 0 0 0 0 1.048zM16.392 13.07a.525.525 0 0 0-.716.19c-.843 1.456-2.51 2.359-4.349 2.359-1.839 0-3.505-.903-4.35-2.357a.523.523 0 1 0-.905.526c1.03 1.775 3.044 2.878 5.255 2.878 2.212 0 4.225-1.103 5.256-2.88a.524.524 0 0 0-.19-.715z"/>
        <circle cx="10.5" cy="10.5" r="10.5" fill-opacity=".2"/>
    </g>
</svg>
