<svg xmlns="http://www.w3.org/2000/svg" width="22" height="22" viewBox="0 0 22 22">
    <g fill="#13B5EA" fill-rule="evenodd">
        <path d="M11 11.786c-2.211 0-4.225 1.103-5.256 2.88a.525.525 0 0 0 .452.786c.18 0 .356-.093.454-.26.844-1.454 2.511-2.357 4.35-2.357 1.839 0 3.506.903 4.35 2.357a.524.524 0 1 0 .906-.527c-1.031-1.776-3.046-2.88-5.256-2.88z"/>
        <path d="M11 0C5.038 0 0 5.038 0 11s5.038 11 11 11 11-5.038 11-11S16.962 0 11 0zm0 20.952c-5.395 0-9.952-4.557-9.952-9.952S5.605 1.048 11 1.048 20.952 5.605 20.952 11 16.395 20.952 11 20.952z"/>
        <path d="M8.12 8.868c0 1.225-1.836 1.225-1.836 0 0-1.224 1.836-1.224 1.836 0M15.845 8.868c0 1.225-1.836 1.225-1.836 0 0-1.224 1.836-1.224 1.836 0"/>
        <circle cx="11.5" cy="11.5" r="10.5" fill-opacity=".2"/>
    </g>
</svg>
